<mxfile host="app.diagrams.net" modified="2024-06-19T11:52:33.304Z" agent="Mozilla/5.0 (Windows NT 10.0; Win64; x64) AppleWebKit/537.36 (KHTML, like Gecko) Chrome/121.0.0.0 Safari/537.36" etag="ZQVdxPN5UjOUn5Y9muXk" version="24.5.5" type="device">
  <diagram name="Página-1" id="eS3jQOmEXR_lqhW21-yD">
    <mxGraphModel dx="1434" dy="782" grid="1" gridSize="10" guides="1" tooltips="1" connect="1" arrows="1" fold="1" page="1" pageScale="1" pageWidth="827" pageHeight="1169" math="0" shadow="0">
      <root>
        <mxCell id="0" />
        <mxCell id="1" parent="0" />
        <mxCell id="7YF3eUOl2dShFKPt6d5Z-3" value="" style="edgeStyle=orthogonalEdgeStyle;rounded=0;orthogonalLoop=1;jettySize=auto;html=1;" parent="1" source="7YF3eUOl2dShFKPt6d5Z-1" target="7YF3eUOl2dShFKPt6d5Z-2" edge="1">
          <mxGeometry relative="1" as="geometry" />
        </mxCell>
        <mxCell id="7YF3eUOl2dShFKPt6d5Z-1" value="INICÌO" style="ellipse;whiteSpace=wrap;html=1;fillColor=#1ba1e2;strokeColor=#006EAF;fontColor=#ffffff;" parent="1" vertex="1">
          <mxGeometry x="60" y="150" width="120" height="80" as="geometry" />
        </mxCell>
        <mxCell id="7YF3eUOl2dShFKPt6d5Z-5" value="" style="edgeStyle=orthogonalEdgeStyle;rounded=0;orthogonalLoop=1;jettySize=auto;html=1;" parent="1" source="7YF3eUOl2dShFKPt6d5Z-2" target="7YF3eUOl2dShFKPt6d5Z-4" edge="1">
          <mxGeometry relative="1" as="geometry" />
        </mxCell>
        <mxCell id="7YF3eUOl2dShFKPt6d5Z-2" value="Ir para tela inicial" style="whiteSpace=wrap;html=1;fillColor=#1ba1e2;strokeColor=#006EAF;fontColor=#ffffff;" parent="1" vertex="1">
          <mxGeometry x="60" y="290" width="120" height="60" as="geometry" />
        </mxCell>
        <mxCell id="7YF3eUOl2dShFKPt6d5Z-7" value="" style="edgeStyle=orthogonalEdgeStyle;rounded=0;orthogonalLoop=1;jettySize=auto;html=1;" parent="1" source="7YF3eUOl2dShFKPt6d5Z-4" target="7YF3eUOl2dShFKPt6d5Z-6" edge="1">
          <mxGeometry relative="1" as="geometry" />
        </mxCell>
        <mxCell id="7YF3eUOl2dShFKPt6d5Z-4" value="Escolher janela de Clientes" style="whiteSpace=wrap;html=1;fillColor=#1ba1e2;strokeColor=#006EAF;fontColor=#ffffff;" parent="1" vertex="1">
          <mxGeometry x="60" y="410" width="120" height="60" as="geometry" />
        </mxCell>
        <mxCell id="7YF3eUOl2dShFKPt6d5Z-9" value="" style="edgeStyle=orthogonalEdgeStyle;rounded=0;orthogonalLoop=1;jettySize=auto;html=1;" parent="1" source="7YF3eUOl2dShFKPt6d5Z-6" target="7YF3eUOl2dShFKPt6d5Z-8" edge="1">
          <mxGeometry relative="1" as="geometry" />
        </mxCell>
        <mxCell id="7YF3eUOl2dShFKPt6d5Z-6" value="Cadastrar cliente" style="whiteSpace=wrap;html=1;fillColor=#1ba1e2;strokeColor=#006EAF;fontColor=#ffffff;" parent="1" vertex="1">
          <mxGeometry x="60" y="525" width="120" height="60" as="geometry" />
        </mxCell>
        <mxCell id="7YF3eUOl2dShFKPt6d5Z-10" style="edgeStyle=orthogonalEdgeStyle;rounded=0;orthogonalLoop=1;jettySize=auto;html=1;exitX=1;exitY=0.5;exitDx=0;exitDy=0;entryX=1;entryY=0.5;entryDx=0;entryDy=0;" parent="1" source="7YF3eUOl2dShFKPt6d5Z-8" target="7YF3eUOl2dShFKPt6d5Z-6" edge="1">
          <mxGeometry relative="1" as="geometry" />
        </mxCell>
        <mxCell id="7YF3eUOl2dShFKPt6d5Z-12" value="Não" style="edgeLabel;html=1;align=center;verticalAlign=middle;resizable=0;points=[];" parent="7YF3eUOl2dShFKPt6d5Z-10" vertex="1" connectable="0">
          <mxGeometry x="-0.0359" relative="1" as="geometry">
            <mxPoint as="offset" />
          </mxGeometry>
        </mxCell>
        <mxCell id="7YF3eUOl2dShFKPt6d5Z-14" value="" style="edgeStyle=orthogonalEdgeStyle;rounded=0;orthogonalLoop=1;jettySize=auto;html=1;" parent="1" source="7YF3eUOl2dShFKPt6d5Z-8" edge="1">
          <mxGeometry relative="1" as="geometry">
            <mxPoint x="120" y="820" as="targetPoint" />
          </mxGeometry>
        </mxCell>
        <mxCell id="7YF3eUOl2dShFKPt6d5Z-15" value="Sim" style="edgeLabel;html=1;align=center;verticalAlign=middle;resizable=0;points=[];" parent="7YF3eUOl2dShFKPt6d5Z-14" vertex="1" connectable="0">
          <mxGeometry x="-0.14" y="-2" relative="1" as="geometry">
            <mxPoint as="offset" />
          </mxGeometry>
        </mxCell>
        <mxCell id="7YF3eUOl2dShFKPt6d5Z-8" value="Dados Válidos?" style="rhombus;whiteSpace=wrap;html=1;fillColor=#1ba1e2;strokeColor=#006EAF;fontColor=#ffffff;" parent="1" vertex="1">
          <mxGeometry x="50" y="650" width="140" height="100" as="geometry" />
        </mxCell>
        <mxCell id="7YF3eUOl2dShFKPt6d5Z-16" value="FIM" style="ellipse;whiteSpace=wrap;html=1;fillColor=#1ba1e2;fontColor=#ffffff;strokeColor=#006EAF;" parent="1" vertex="1">
          <mxGeometry x="60" y="820" width="120" height="80" as="geometry" />
        </mxCell>
        <mxCell id="7YF3eUOl2dShFKPt6d5Z-21" style="edgeStyle=orthogonalEdgeStyle;rounded=0;orthogonalLoop=1;jettySize=auto;html=1;exitX=0.5;exitY=1;exitDx=0;exitDy=0;entryX=0.5;entryY=0;entryDx=0;entryDy=0;" parent="1" source="7YF3eUOl2dShFKPt6d5Z-17" target="7YF3eUOl2dShFKPt6d5Z-20" edge="1">
          <mxGeometry relative="1" as="geometry" />
        </mxCell>
        <mxCell id="7YF3eUOl2dShFKPt6d5Z-17" value="INICÌO" style="ellipse;whiteSpace=wrap;html=1;fillColor=#1ba1e2;strokeColor=#006EAF;fontColor=#ffffff;" parent="1" vertex="1">
          <mxGeometry x="270" y="150" width="120" height="80" as="geometry" />
        </mxCell>
        <mxCell id="7YF3eUOl2dShFKPt6d5Z-23" style="edgeStyle=orthogonalEdgeStyle;rounded=0;orthogonalLoop=1;jettySize=auto;html=1;exitX=0.5;exitY=1;exitDx=0;exitDy=0;entryX=0.5;entryY=0;entryDx=0;entryDy=0;" parent="1" source="7YF3eUOl2dShFKPt6d5Z-20" target="7YF3eUOl2dShFKPt6d5Z-22" edge="1">
          <mxGeometry relative="1" as="geometry" />
        </mxCell>
        <mxCell id="7YF3eUOl2dShFKPt6d5Z-20" value="Ir para tela inicial" style="whiteSpace=wrap;html=1;fillColor=#1ba1e2;strokeColor=#006EAF;fontColor=#ffffff;" parent="1" vertex="1">
          <mxGeometry x="270" y="280" width="120" height="60" as="geometry" />
        </mxCell>
        <mxCell id="7YF3eUOl2dShFKPt6d5Z-29" value="" style="edgeStyle=orthogonalEdgeStyle;rounded=0;orthogonalLoop=1;jettySize=auto;html=1;" parent="1" source="7YF3eUOl2dShFKPt6d5Z-22" target="7YF3eUOl2dShFKPt6d5Z-28" edge="1">
          <mxGeometry relative="1" as="geometry" />
        </mxCell>
        <mxCell id="7YF3eUOl2dShFKPt6d5Z-22" value="Escolher janela de Produtos" style="whiteSpace=wrap;html=1;fillColor=#1ba1e2;strokeColor=#006EAF;fontColor=#ffffff;" parent="1" vertex="1">
          <mxGeometry x="270" y="410" width="120" height="60" as="geometry" />
        </mxCell>
        <mxCell id="7YF3eUOl2dShFKPt6d5Z-33" value="" style="edgeStyle=orthogonalEdgeStyle;rounded=0;orthogonalLoop=1;jettySize=auto;html=1;" parent="1" source="7YF3eUOl2dShFKPt6d5Z-28" target="7YF3eUOl2dShFKPt6d5Z-32" edge="1">
          <mxGeometry relative="1" as="geometry" />
        </mxCell>
        <mxCell id="7YF3eUOl2dShFKPt6d5Z-34" value="Sim" style="edgeLabel;html=1;align=center;verticalAlign=middle;resizable=0;points=[];" parent="7YF3eUOl2dShFKPt6d5Z-33" vertex="1" connectable="0">
          <mxGeometry x="-0.2615" y="2" relative="1" as="geometry">
            <mxPoint as="offset" />
          </mxGeometry>
        </mxCell>
        <mxCell id="7YF3eUOl2dShFKPt6d5Z-41" value="" style="edgeStyle=orthogonalEdgeStyle;rounded=0;orthogonalLoop=1;jettySize=auto;html=1;" parent="1" source="7YF3eUOl2dShFKPt6d5Z-28" target="7YF3eUOl2dShFKPt6d5Z-40" edge="1">
          <mxGeometry relative="1" as="geometry" />
        </mxCell>
        <mxCell id="7YF3eUOl2dShFKPt6d5Z-42" value="Não" style="edgeLabel;html=1;align=center;verticalAlign=middle;resizable=0;points=[];" parent="7YF3eUOl2dShFKPt6d5Z-41" vertex="1" connectable="0">
          <mxGeometry x="-0.125" y="2" relative="1" as="geometry">
            <mxPoint as="offset" />
          </mxGeometry>
        </mxCell>
        <mxCell id="7YF3eUOl2dShFKPt6d5Z-28" value="Escolher modelo?" style="rhombus;whiteSpace=wrap;html=1;fillColor=#1ba1e2;strokeColor=#006EAF;fontColor=#ffffff;" parent="1" vertex="1">
          <mxGeometry x="270" y="525" width="120" height="80" as="geometry" />
        </mxCell>
        <mxCell id="7YF3eUOl2dShFKPt6d5Z-32" value="Ir para página de modelos" style="whiteSpace=wrap;html=1;fillColor=#1ba1e2;strokeColor=#006EAF;fontColor=#ffffff;" parent="1" vertex="1">
          <mxGeometry x="270" y="670" width="120" height="60" as="geometry" />
        </mxCell>
        <mxCell id="7YF3eUOl2dShFKPt6d5Z-44" value="" style="edgeStyle=orthogonalEdgeStyle;rounded=0;orthogonalLoop=1;jettySize=auto;html=1;" parent="1" source="7YF3eUOl2dShFKPt6d5Z-40" target="7YF3eUOl2dShFKPt6d5Z-43" edge="1">
          <mxGeometry relative="1" as="geometry" />
        </mxCell>
        <mxCell id="7YF3eUOl2dShFKPt6d5Z-40" value="Escolher estampas" style="whiteSpace=wrap;html=1;fillColor=#1ba1e2;strokeColor=#006EAF;fontColor=#ffffff;" parent="1" vertex="1">
          <mxGeometry x="470" y="535" width="120" height="60" as="geometry" />
        </mxCell>
        <mxCell id="7YF3eUOl2dShFKPt6d5Z-46" value="" style="edgeStyle=orthogonalEdgeStyle;rounded=0;orthogonalLoop=1;jettySize=auto;html=1;" parent="1" source="7YF3eUOl2dShFKPt6d5Z-43" target="7YF3eUOl2dShFKPt6d5Z-45" edge="1">
          <mxGeometry relative="1" as="geometry" />
        </mxCell>
        <mxCell id="7YF3eUOl2dShFKPt6d5Z-43" value="Ir para página de estampas" style="whiteSpace=wrap;html=1;fillColor=#1ba1e2;strokeColor=#006EAF;fontColor=#ffffff;" parent="1" vertex="1">
          <mxGeometry x="470" y="675" width="120" height="60" as="geometry" />
        </mxCell>
        <mxCell id="7YF3eUOl2dShFKPt6d5Z-48" value="" style="edgeStyle=orthogonalEdgeStyle;rounded=0;orthogonalLoop=1;jettySize=auto;html=1;" parent="1" source="7YF3eUOl2dShFKPt6d5Z-45" target="7YF3eUOl2dShFKPt6d5Z-47" edge="1">
          <mxGeometry relative="1" as="geometry" />
        </mxCell>
        <mxCell id="7YF3eUOl2dShFKPt6d5Z-49" value="Sim" style="edgeLabel;html=1;align=center;verticalAlign=middle;resizable=0;points=[];" parent="7YF3eUOl2dShFKPt6d5Z-48" vertex="1" connectable="0">
          <mxGeometry x="-0.2" y="2" relative="1" as="geometry">
            <mxPoint as="offset" />
          </mxGeometry>
        </mxCell>
        <mxCell id="7YF3eUOl2dShFKPt6d5Z-53" style="edgeStyle=orthogonalEdgeStyle;rounded=0;orthogonalLoop=1;jettySize=auto;html=1;exitX=1;exitY=0.5;exitDx=0;exitDy=0;entryX=1;entryY=0.5;entryDx=0;entryDy=0;" parent="1" source="7YF3eUOl2dShFKPt6d5Z-45" target="7YF3eUOl2dShFKPt6d5Z-43" edge="1">
          <mxGeometry relative="1" as="geometry" />
        </mxCell>
        <mxCell id="7YF3eUOl2dShFKPt6d5Z-54" value="Não" style="edgeLabel;html=1;align=center;verticalAlign=middle;resizable=0;points=[];" parent="7YF3eUOl2dShFKPt6d5Z-53" vertex="1" connectable="0">
          <mxGeometry x="0.0353" y="-2" relative="1" as="geometry">
            <mxPoint as="offset" />
          </mxGeometry>
        </mxCell>
        <mxCell id="7YF3eUOl2dShFKPt6d5Z-45" value="Personalizar estampa?" style="rhombus;whiteSpace=wrap;html=1;fillColor=#1ba1e2;strokeColor=#006EAF;fontColor=#ffffff;" parent="1" vertex="1">
          <mxGeometry x="475" y="800" width="110" height="80" as="geometry" />
        </mxCell>
        <mxCell id="7YF3eUOl2dShFKPt6d5Z-59" value="" style="edgeStyle=orthogonalEdgeStyle;rounded=0;orthogonalLoop=1;jettySize=auto;html=1;" parent="1" source="7YF3eUOl2dShFKPt6d5Z-47" target="7YF3eUOl2dShFKPt6d5Z-58" edge="1">
          <mxGeometry relative="1" as="geometry" />
        </mxCell>
        <mxCell id="7YF3eUOl2dShFKPt6d5Z-47" value="Página de Desenhos&amp;nbsp;" style="whiteSpace=wrap;html=1;fillColor=#1ba1e2;strokeColor=#006EAF;fontColor=#ffffff;" parent="1" vertex="1">
          <mxGeometry x="470" y="970" width="120" height="60" as="geometry" />
        </mxCell>
        <mxCell id="7YF3eUOl2dShFKPt6d5Z-61" value="" style="edgeStyle=orthogonalEdgeStyle;rounded=0;orthogonalLoop=1;jettySize=auto;html=1;" parent="1" source="7YF3eUOl2dShFKPt6d5Z-58" target="7YF3eUOl2dShFKPt6d5Z-60" edge="1">
          <mxGeometry relative="1" as="geometry" />
        </mxCell>
        <mxCell id="7YF3eUOl2dShFKPt6d5Z-58" value="Escolher tamanho" style="whiteSpace=wrap;html=1;fillColor=#1ba1e2;strokeColor=#006EAF;fontColor=#ffffff;" parent="1" vertex="1">
          <mxGeometry x="470" y="1110" width="120" height="60" as="geometry" />
        </mxCell>
        <mxCell id="7YF3eUOl2dShFKPt6d5Z-63" value="" style="edgeStyle=orthogonalEdgeStyle;rounded=0;orthogonalLoop=1;jettySize=auto;html=1;" parent="1" source="7YF3eUOl2dShFKPt6d5Z-60" target="7YF3eUOl2dShFKPt6d5Z-62" edge="1">
          <mxGeometry relative="1" as="geometry" />
        </mxCell>
        <mxCell id="7YF3eUOl2dShFKPt6d5Z-60" value="Escolher quantidade" style="whiteSpace=wrap;html=1;fillColor=#1ba1e2;strokeColor=#006EAF;fontColor=#ffffff;" parent="1" vertex="1">
          <mxGeometry x="470" y="1250" width="120" height="60" as="geometry" />
        </mxCell>
        <mxCell id="7YF3eUOl2dShFKPt6d5Z-65" value="" style="edgeStyle=orthogonalEdgeStyle;rounded=0;orthogonalLoop=1;jettySize=auto;html=1;" parent="1" source="7YF3eUOl2dShFKPt6d5Z-62" target="7YF3eUOl2dShFKPt6d5Z-64" edge="1">
          <mxGeometry relative="1" as="geometry" />
        </mxCell>
        <mxCell id="7YF3eUOl2dShFKPt6d5Z-62" value="Escolher cores" style="whiteSpace=wrap;html=1;fillColor=#1ba1e2;strokeColor=#006EAF;fontColor=#ffffff;" parent="1" vertex="1">
          <mxGeometry x="470" y="1390" width="120" height="60" as="geometry" />
        </mxCell>
        <mxCell id="7YF3eUOl2dShFKPt6d5Z-66" style="edgeStyle=orthogonalEdgeStyle;rounded=0;orthogonalLoop=1;jettySize=auto;html=1;exitX=1;exitY=0.5;exitDx=0;exitDy=0;entryX=1;entryY=0.25;entryDx=0;entryDy=0;" parent="1" source="7YF3eUOl2dShFKPt6d5Z-64" target="7YF3eUOl2dShFKPt6d5Z-20" edge="1">
          <mxGeometry relative="1" as="geometry">
            <Array as="points">
              <mxPoint x="710" y="1570" />
              <mxPoint x="710" y="295" />
            </Array>
          </mxGeometry>
        </mxCell>
        <mxCell id="7YF3eUOl2dShFKPt6d5Z-67" value="Não" style="edgeLabel;html=1;align=center;verticalAlign=middle;resizable=0;points=[];" parent="7YF3eUOl2dShFKPt6d5Z-66" vertex="1" connectable="0">
          <mxGeometry x="-0.2756" y="-3" relative="1" as="geometry">
            <mxPoint as="offset" />
          </mxGeometry>
        </mxCell>
        <mxCell id="7YF3eUOl2dShFKPt6d5Z-69" style="edgeStyle=orthogonalEdgeStyle;rounded=0;orthogonalLoop=1;jettySize=auto;html=1;exitX=0.5;exitY=1;exitDx=0;exitDy=0;entryX=0.5;entryY=0;entryDx=0;entryDy=0;" parent="1" source="7YF3eUOl2dShFKPt6d5Z-64" target="7YF3eUOl2dShFKPt6d5Z-68" edge="1">
          <mxGeometry relative="1" as="geometry" />
        </mxCell>
        <mxCell id="7YF3eUOl2dShFKPt6d5Z-70" value="Sim" style="edgeLabel;html=1;align=center;verticalAlign=middle;resizable=0;points=[];" parent="7YF3eUOl2dShFKPt6d5Z-69" vertex="1" connectable="0">
          <mxGeometry x="-0.25" y="-1" relative="1" as="geometry">
            <mxPoint as="offset" />
          </mxGeometry>
        </mxCell>
        <mxCell id="7YF3eUOl2dShFKPt6d5Z-64" value="Finalizar pedido?" style="rhombus;whiteSpace=wrap;html=1;fillColor=#1ba1e2;strokeColor=#006EAF;fontColor=#ffffff;" parent="1" vertex="1">
          <mxGeometry x="475" y="1530" width="110" height="80" as="geometry" />
        </mxCell>
        <mxCell id="7YF3eUOl2dShFKPt6d5Z-68" value="FIM" style="ellipse;whiteSpace=wrap;html=1;fillColor=#1ba1e2;fontColor=#ffffff;strokeColor=#006EAF;" parent="1" vertex="1">
          <mxGeometry x="470" y="1670" width="120" height="80" as="geometry" />
        </mxCell>
        <mxCell id="7YF3eUOl2dShFKPt6d5Z-73" style="edgeStyle=orthogonalEdgeStyle;rounded=0;orthogonalLoop=1;jettySize=auto;html=1;exitX=0.5;exitY=1;exitDx=0;exitDy=0;entryX=0.5;entryY=0;entryDx=0;entryDy=0;" parent="1" source="7YF3eUOl2dShFKPt6d5Z-71" target="7YF3eUOl2dShFKPt6d5Z-72" edge="1">
          <mxGeometry relative="1" as="geometry" />
        </mxCell>
        <mxCell id="7YF3eUOl2dShFKPt6d5Z-71" value="INICÌO" style="ellipse;whiteSpace=wrap;html=1;fillColor=#1ba1e2;strokeColor=#006EAF;fontColor=#ffffff;" parent="1" vertex="1">
          <mxGeometry x="890" y="150" width="120" height="80" as="geometry" />
        </mxCell>
        <mxCell id="7YF3eUOl2dShFKPt6d5Z-75" style="edgeStyle=orthogonalEdgeStyle;rounded=0;orthogonalLoop=1;jettySize=auto;html=1;exitX=0.5;exitY=1;exitDx=0;exitDy=0;entryX=0.5;entryY=0;entryDx=0;entryDy=0;" parent="1" source="7YF3eUOl2dShFKPt6d5Z-72" target="7YF3eUOl2dShFKPt6d5Z-74" edge="1">
          <mxGeometry relative="1" as="geometry" />
        </mxCell>
        <mxCell id="7YF3eUOl2dShFKPt6d5Z-72" value="Ir para tela inicial" style="whiteSpace=wrap;html=1;fillColor=#1ba1e2;strokeColor=#006EAF;fontColor=#ffffff;" parent="1" vertex="1">
          <mxGeometry x="890" y="280" width="120" height="60" as="geometry" />
        </mxCell>
        <mxCell id="7YF3eUOl2dShFKPt6d5Z-77" style="edgeStyle=orthogonalEdgeStyle;rounded=0;orthogonalLoop=1;jettySize=auto;html=1;exitX=0.5;exitY=1;exitDx=0;exitDy=0;" parent="1" source="7YF3eUOl2dShFKPt6d5Z-74" target="7YF3eUOl2dShFKPt6d5Z-76" edge="1">
          <mxGeometry relative="1" as="geometry" />
        </mxCell>
        <mxCell id="7YF3eUOl2dShFKPt6d5Z-74" value="Escolher janela de Contato" style="whiteSpace=wrap;html=1;fillColor=#1ba1e2;strokeColor=#006EAF;fontColor=#ffffff;" parent="1" vertex="1">
          <mxGeometry x="890" y="400" width="120" height="60" as="geometry" />
        </mxCell>
        <mxCell id="7YF3eUOl2dShFKPt6d5Z-76" value="FIM" style="ellipse;whiteSpace=wrap;html=1;fillColor=#1ba1e2;fontColor=#ffffff;strokeColor=#006EAF;" parent="1" vertex="1">
          <mxGeometry x="890" y="505" width="120" height="80" as="geometry" />
        </mxCell>
        <mxCell id="_1CBQAAkm-VoUzcbe9YA-3" value="" style="edgeStyle=orthogonalEdgeStyle;rounded=0;orthogonalLoop=1;jettySize=auto;html=1;" edge="1" parent="1" source="_1CBQAAkm-VoUzcbe9YA-1" target="_1CBQAAkm-VoUzcbe9YA-2">
          <mxGeometry relative="1" as="geometry" />
        </mxCell>
        <mxCell id="_1CBQAAkm-VoUzcbe9YA-1" value="INICÌO" style="ellipse;whiteSpace=wrap;html=1;fillColor=#1ba1e2;strokeColor=#006EAF;fontColor=#ffffff;" vertex="1" parent="1">
          <mxGeometry x="1190" y="150" width="120" height="80" as="geometry" />
        </mxCell>
        <mxCell id="_1CBQAAkm-VoUzcbe9YA-5" value="" style="edgeStyle=orthogonalEdgeStyle;rounded=0;orthogonalLoop=1;jettySize=auto;html=1;" edge="1" parent="1" source="_1CBQAAkm-VoUzcbe9YA-2" target="_1CBQAAkm-VoUzcbe9YA-4">
          <mxGeometry relative="1" as="geometry" />
        </mxCell>
        <mxCell id="_1CBQAAkm-VoUzcbe9YA-2" value="Ir para tela de cadastro de Matéria-Prima" style="whiteSpace=wrap;html=1;fillColor=#1ba1e2;strokeColor=#006EAF;fontColor=#ffffff;" vertex="1" parent="1">
          <mxGeometry x="1185" y="290" width="130" height="60" as="geometry" />
        </mxCell>
        <mxCell id="_1CBQAAkm-VoUzcbe9YA-7" value="" style="edgeStyle=orthogonalEdgeStyle;rounded=0;orthogonalLoop=1;jettySize=auto;html=1;" edge="1" parent="1" source="_1CBQAAkm-VoUzcbe9YA-4" target="_1CBQAAkm-VoUzcbe9YA-6">
          <mxGeometry relative="1" as="geometry" />
        </mxCell>
        <mxCell id="_1CBQAAkm-VoUzcbe9YA-4" value="Colocar nome" style="whiteSpace=wrap;html=1;fillColor=#1ba1e2;strokeColor=#006EAF;fontColor=#ffffff;" vertex="1" parent="1">
          <mxGeometry x="1190" y="400" width="120" height="60" as="geometry" />
        </mxCell>
        <mxCell id="_1CBQAAkm-VoUzcbe9YA-9" value="" style="edgeStyle=orthogonalEdgeStyle;rounded=0;orthogonalLoop=1;jettySize=auto;html=1;" edge="1" parent="1" source="_1CBQAAkm-VoUzcbe9YA-6" target="_1CBQAAkm-VoUzcbe9YA-8">
          <mxGeometry relative="1" as="geometry" />
        </mxCell>
        <mxCell id="_1CBQAAkm-VoUzcbe9YA-6" value="Escolher Unidade de Medida" style="whiteSpace=wrap;html=1;fillColor=#1ba1e2;strokeColor=#006EAF;fontColor=#ffffff;" vertex="1" parent="1">
          <mxGeometry x="1190" y="525" width="120" height="60" as="geometry" />
        </mxCell>
        <mxCell id="_1CBQAAkm-VoUzcbe9YA-11" value="" style="edgeStyle=orthogonalEdgeStyle;rounded=0;orthogonalLoop=1;jettySize=auto;html=1;" edge="1" parent="1" source="_1CBQAAkm-VoUzcbe9YA-8" target="_1CBQAAkm-VoUzcbe9YA-10">
          <mxGeometry relative="1" as="geometry" />
        </mxCell>
        <mxCell id="_1CBQAAkm-VoUzcbe9YA-29" value="Sim" style="edgeLabel;html=1;align=center;verticalAlign=middle;resizable=0;points=[];" vertex="1" connectable="0" parent="_1CBQAAkm-VoUzcbe9YA-11">
          <mxGeometry y="2" relative="1" as="geometry">
            <mxPoint as="offset" />
          </mxGeometry>
        </mxCell>
        <mxCell id="_1CBQAAkm-VoUzcbe9YA-16" value="" style="edgeStyle=orthogonalEdgeStyle;rounded=0;orthogonalLoop=1;jettySize=auto;html=1;" edge="1" parent="1" source="_1CBQAAkm-VoUzcbe9YA-8" target="_1CBQAAkm-VoUzcbe9YA-15">
          <mxGeometry relative="1" as="geometry" />
        </mxCell>
        <mxCell id="_1CBQAAkm-VoUzcbe9YA-30" value="Não" style="edgeLabel;html=1;align=center;verticalAlign=middle;resizable=0;points=[];" vertex="1" connectable="0" parent="_1CBQAAkm-VoUzcbe9YA-16">
          <mxGeometry x="-0.3429" y="-2" relative="1" as="geometry">
            <mxPoint as="offset" />
          </mxGeometry>
        </mxCell>
        <mxCell id="_1CBQAAkm-VoUzcbe9YA-8" value="Salvar Alterações?" style="rhombus;whiteSpace=wrap;html=1;fillColor=#1ba1e2;strokeColor=#006EAF;fontColor=#ffffff;" vertex="1" parent="1">
          <mxGeometry x="1200" y="640" width="100" height="80" as="geometry" />
        </mxCell>
        <mxCell id="_1CBQAAkm-VoUzcbe9YA-10" value="Fim" style="ellipse;whiteSpace=wrap;html=1;fillColor=#1ba1e2;fontColor=#ffffff;strokeColor=#006EAF;" vertex="1" parent="1">
          <mxGeometry x="1205" y="760" width="90" height="70" as="geometry" />
        </mxCell>
        <mxCell id="_1CBQAAkm-VoUzcbe9YA-15" value="Voltar para tela inicial" style="whiteSpace=wrap;html=1;fillColor=#1ba1e2;strokeColor=#006EAF;fontColor=#ffffff;" vertex="1" parent="1">
          <mxGeometry x="1370" y="650" width="120" height="60" as="geometry" />
        </mxCell>
        <mxCell id="_1CBQAAkm-VoUzcbe9YA-19" value="" style="edgeStyle=orthogonalEdgeStyle;rounded=0;orthogonalLoop=1;jettySize=auto;html=1;" edge="1" parent="1" source="_1CBQAAkm-VoUzcbe9YA-17" target="_1CBQAAkm-VoUzcbe9YA-18">
          <mxGeometry relative="1" as="geometry" />
        </mxCell>
        <mxCell id="_1CBQAAkm-VoUzcbe9YA-17" value="INICÌO" style="ellipse;whiteSpace=wrap;html=1;fillColor=#1ba1e2;strokeColor=#006EAF;fontColor=#ffffff;" vertex="1" parent="1">
          <mxGeometry x="1640" y="150" width="120" height="80" as="geometry" />
        </mxCell>
        <mxCell id="_1CBQAAkm-VoUzcbe9YA-21" value="" style="edgeStyle=orthogonalEdgeStyle;rounded=0;orthogonalLoop=1;jettySize=auto;html=1;" edge="1" parent="1" source="_1CBQAAkm-VoUzcbe9YA-18" target="_1CBQAAkm-VoUzcbe9YA-20">
          <mxGeometry relative="1" as="geometry" />
        </mxCell>
        <mxCell id="_1CBQAAkm-VoUzcbe9YA-18" value="Ir para tela de cadastro do(a) Costureiro" style="whiteSpace=wrap;html=1;fillColor=#1ba1e2;strokeColor=#006EAF;fontColor=#ffffff;" vertex="1" parent="1">
          <mxGeometry x="1640" y="280" width="120" height="60" as="geometry" />
        </mxCell>
        <mxCell id="_1CBQAAkm-VoUzcbe9YA-23" value="" style="edgeStyle=orthogonalEdgeStyle;rounded=0;orthogonalLoop=1;jettySize=auto;html=1;" edge="1" parent="1" source="_1CBQAAkm-VoUzcbe9YA-20" target="_1CBQAAkm-VoUzcbe9YA-22">
          <mxGeometry relative="1" as="geometry" />
        </mxCell>
        <mxCell id="_1CBQAAkm-VoUzcbe9YA-20" value="Colocar Nome" style="whiteSpace=wrap;html=1;fillColor=#1ba1e2;strokeColor=#006EAF;fontColor=#ffffff;" vertex="1" parent="1">
          <mxGeometry x="1640" y="390" width="120" height="60" as="geometry" />
        </mxCell>
        <mxCell id="_1CBQAAkm-VoUzcbe9YA-25" value="" style="edgeStyle=orthogonalEdgeStyle;rounded=0;orthogonalLoop=1;jettySize=auto;html=1;" edge="1" parent="1" source="_1CBQAAkm-VoUzcbe9YA-22" target="_1CBQAAkm-VoUzcbe9YA-24">
          <mxGeometry relative="1" as="geometry" />
        </mxCell>
        <mxCell id="_1CBQAAkm-VoUzcbe9YA-22" value="Colocar Telefone" style="whiteSpace=wrap;html=1;fillColor=#1ba1e2;strokeColor=#006EAF;fontColor=#ffffff;" vertex="1" parent="1">
          <mxGeometry x="1640" y="525" width="120" height="60" as="geometry" />
        </mxCell>
        <mxCell id="_1CBQAAkm-VoUzcbe9YA-28" value="" style="edgeStyle=orthogonalEdgeStyle;rounded=0;orthogonalLoop=1;jettySize=auto;html=1;" edge="1" parent="1" source="_1CBQAAkm-VoUzcbe9YA-24" target="_1CBQAAkm-VoUzcbe9YA-27">
          <mxGeometry relative="1" as="geometry" />
        </mxCell>
        <mxCell id="_1CBQAAkm-VoUzcbe9YA-31" value="Sim" style="edgeLabel;html=1;align=center;verticalAlign=middle;resizable=0;points=[];" vertex="1" connectable="0" parent="_1CBQAAkm-VoUzcbe9YA-28">
          <mxGeometry x="-0.25" relative="1" as="geometry">
            <mxPoint as="offset" />
          </mxGeometry>
        </mxCell>
        <mxCell id="_1CBQAAkm-VoUzcbe9YA-35" value="" style="edgeStyle=orthogonalEdgeStyle;rounded=0;orthogonalLoop=1;jettySize=auto;html=1;" edge="1" parent="1" source="_1CBQAAkm-VoUzcbe9YA-24" target="_1CBQAAkm-VoUzcbe9YA-34">
          <mxGeometry relative="1" as="geometry" />
        </mxCell>
        <mxCell id="_1CBQAAkm-VoUzcbe9YA-36" value="Não" style="edgeLabel;html=1;align=center;verticalAlign=middle;resizable=0;points=[];" vertex="1" connectable="0" parent="_1CBQAAkm-VoUzcbe9YA-35">
          <mxGeometry x="-0.3455" y="1" relative="1" as="geometry">
            <mxPoint as="offset" />
          </mxGeometry>
        </mxCell>
        <mxCell id="_1CBQAAkm-VoUzcbe9YA-24" value="Salvar Alterações?" style="rhombus;whiteSpace=wrap;html=1;fillColor=#1ba1e2;strokeColor=#006EAF;fontColor=#ffffff;" vertex="1" parent="1">
          <mxGeometry x="1655" y="630" width="90" height="80" as="geometry" />
        </mxCell>
        <mxCell id="_1CBQAAkm-VoUzcbe9YA-27" value="Fim" style="ellipse;whiteSpace=wrap;html=1;fillColor=#1ba1e2;fontColor=#ffffff;strokeColor=#006EAF;" vertex="1" parent="1">
          <mxGeometry x="1655" y="750" width="90" height="70" as="geometry" />
        </mxCell>
        <mxCell id="_1CBQAAkm-VoUzcbe9YA-34" value="Voltar para tela inicial" style="whiteSpace=wrap;html=1;fillColor=#1ba1e2;strokeColor=#006EAF;fontColor=#ffffff;" vertex="1" parent="1">
          <mxGeometry x="1800" y="640" width="120" height="60" as="geometry" />
        </mxCell>
        <mxCell id="_1CBQAAkm-VoUzcbe9YA-39" value="" style="edgeStyle=orthogonalEdgeStyle;rounded=0;orthogonalLoop=1;jettySize=auto;html=1;" edge="1" parent="1" source="_1CBQAAkm-VoUzcbe9YA-37" target="_1CBQAAkm-VoUzcbe9YA-38">
          <mxGeometry relative="1" as="geometry" />
        </mxCell>
        <mxCell id="_1CBQAAkm-VoUzcbe9YA-37" value="INICÌO" style="ellipse;whiteSpace=wrap;html=1;fillColor=#1ba1e2;strokeColor=#006EAF;fontColor=#ffffff;" vertex="1" parent="1">
          <mxGeometry x="2068" y="150" width="120" height="80" as="geometry" />
        </mxCell>
        <mxCell id="_1CBQAAkm-VoUzcbe9YA-41" value="" style="edgeStyle=orthogonalEdgeStyle;rounded=0;orthogonalLoop=1;jettySize=auto;html=1;" edge="1" parent="1" source="_1CBQAAkm-VoUzcbe9YA-38" target="_1CBQAAkm-VoUzcbe9YA-40">
          <mxGeometry relative="1" as="geometry" />
        </mxCell>
        <mxCell id="_1CBQAAkm-VoUzcbe9YA-38" value="Ir para tela de cadastro do(a) Acabamentista" style="whiteSpace=wrap;html=1;fillColor=#1ba1e2;strokeColor=#006EAF;fontColor=#ffffff;" vertex="1" parent="1">
          <mxGeometry x="2068" y="280" width="120" height="60" as="geometry" />
        </mxCell>
        <mxCell id="_1CBQAAkm-VoUzcbe9YA-43" value="" style="edgeStyle=orthogonalEdgeStyle;rounded=0;orthogonalLoop=1;jettySize=auto;html=1;" edge="1" parent="1" source="_1CBQAAkm-VoUzcbe9YA-40" target="_1CBQAAkm-VoUzcbe9YA-42">
          <mxGeometry relative="1" as="geometry" />
        </mxCell>
        <mxCell id="_1CBQAAkm-VoUzcbe9YA-40" value="Colocar Nome" style="whiteSpace=wrap;html=1;fillColor=#1ba1e2;strokeColor=#006EAF;fontColor=#ffffff;" vertex="1" parent="1">
          <mxGeometry x="2068" y="380" width="120" height="60" as="geometry" />
        </mxCell>
        <mxCell id="_1CBQAAkm-VoUzcbe9YA-45" value="" style="edgeStyle=orthogonalEdgeStyle;rounded=0;orthogonalLoop=1;jettySize=auto;html=1;" edge="1" parent="1" source="_1CBQAAkm-VoUzcbe9YA-42" target="_1CBQAAkm-VoUzcbe9YA-44">
          <mxGeometry relative="1" as="geometry" />
        </mxCell>
        <mxCell id="_1CBQAAkm-VoUzcbe9YA-42" value="Colocar Telefone" style="whiteSpace=wrap;html=1;fillColor=#1ba1e2;strokeColor=#006EAF;fontColor=#ffffff;" vertex="1" parent="1">
          <mxGeometry x="2068" y="500" width="120" height="60" as="geometry" />
        </mxCell>
        <mxCell id="_1CBQAAkm-VoUzcbe9YA-47" value="" style="edgeStyle=orthogonalEdgeStyle;rounded=0;orthogonalLoop=1;jettySize=auto;html=1;" edge="1" parent="1" source="_1CBQAAkm-VoUzcbe9YA-44" target="_1CBQAAkm-VoUzcbe9YA-46">
          <mxGeometry relative="1" as="geometry" />
        </mxCell>
        <mxCell id="_1CBQAAkm-VoUzcbe9YA-48" value="Sim" style="edgeLabel;html=1;align=center;verticalAlign=middle;resizable=0;points=[];" vertex="1" connectable="0" parent="_1CBQAAkm-VoUzcbe9YA-47">
          <mxGeometry x="-0.0222" y="-1" relative="1" as="geometry">
            <mxPoint as="offset" />
          </mxGeometry>
        </mxCell>
        <mxCell id="_1CBQAAkm-VoUzcbe9YA-51" value="" style="edgeStyle=orthogonalEdgeStyle;rounded=0;orthogonalLoop=1;jettySize=auto;html=1;" edge="1" parent="1" source="_1CBQAAkm-VoUzcbe9YA-44" target="_1CBQAAkm-VoUzcbe9YA-50">
          <mxGeometry relative="1" as="geometry" />
        </mxCell>
        <mxCell id="_1CBQAAkm-VoUzcbe9YA-53" value="Não" style="edgeLabel;html=1;align=center;verticalAlign=middle;resizable=0;points=[];" vertex="1" connectable="0" parent="_1CBQAAkm-VoUzcbe9YA-51">
          <mxGeometry x="-0.0526" y="-1" relative="1" as="geometry">
            <mxPoint as="offset" />
          </mxGeometry>
        </mxCell>
        <mxCell id="_1CBQAAkm-VoUzcbe9YA-44" value="Salvar Alterações?" style="rhombus;whiteSpace=wrap;html=1;fillColor=#1ba1e2;strokeColor=#006EAF;fontColor=#ffffff;" vertex="1" parent="1">
          <mxGeometry x="2083" y="595" width="90" height="80" as="geometry" />
        </mxCell>
        <mxCell id="_1CBQAAkm-VoUzcbe9YA-46" value="Fim" style="ellipse;whiteSpace=wrap;html=1;fillColor=#1ba1e2;fontColor=#ffffff;strokeColor=#006EAF;" vertex="1" parent="1">
          <mxGeometry x="2083" y="720" width="90" height="70" as="geometry" />
        </mxCell>
        <mxCell id="_1CBQAAkm-VoUzcbe9YA-50" value="Voltar para tela inicial" style="whiteSpace=wrap;html=1;fillColor=#1ba1e2;strokeColor=#006EAF;fontColor=#ffffff;" vertex="1" parent="1">
          <mxGeometry x="2230" y="605" width="120" height="60" as="geometry" />
        </mxCell>
        <mxCell id="_1CBQAAkm-VoUzcbe9YA-56" value="" style="edgeStyle=orthogonalEdgeStyle;rounded=0;orthogonalLoop=1;jettySize=auto;html=1;" edge="1" parent="1" source="_1CBQAAkm-VoUzcbe9YA-54" target="_1CBQAAkm-VoUzcbe9YA-55">
          <mxGeometry relative="1" as="geometry" />
        </mxCell>
        <mxCell id="_1CBQAAkm-VoUzcbe9YA-54" value="INICÌO" style="ellipse;whiteSpace=wrap;html=1;fillColor=#1ba1e2;strokeColor=#006EAF;fontColor=#ffffff;" vertex="1" parent="1">
          <mxGeometry x="2500" y="150" width="120" height="80" as="geometry" />
        </mxCell>
        <mxCell id="_1CBQAAkm-VoUzcbe9YA-58" value="" style="edgeStyle=orthogonalEdgeStyle;rounded=0;orthogonalLoop=1;jettySize=auto;html=1;" edge="1" parent="1" source="_1CBQAAkm-VoUzcbe9YA-55" target="_1CBQAAkm-VoUzcbe9YA-57">
          <mxGeometry relative="1" as="geometry" />
        </mxCell>
        <mxCell id="_1CBQAAkm-VoUzcbe9YA-55" value="Ir para tela inicial" style="whiteSpace=wrap;html=1;fillColor=#1ba1e2;strokeColor=#006EAF;fontColor=#ffffff;" vertex="1" parent="1">
          <mxGeometry x="2500" y="280" width="120" height="60" as="geometry" />
        </mxCell>
        <mxCell id="_1CBQAAkm-VoUzcbe9YA-60" value="" style="edgeStyle=orthogonalEdgeStyle;rounded=0;orthogonalLoop=1;jettySize=auto;html=1;" edge="1" parent="1" source="_1CBQAAkm-VoUzcbe9YA-57" target="_1CBQAAkm-VoUzcbe9YA-59">
          <mxGeometry relative="1" as="geometry" />
        </mxCell>
        <mxCell id="_1CBQAAkm-VoUzcbe9YA-57" value="Escolher janela de Vendas" style="whiteSpace=wrap;html=1;fillColor=#1ba1e2;strokeColor=#006EAF;fontColor=#ffffff;" vertex="1" parent="1">
          <mxGeometry x="2500" y="400" width="120" height="60" as="geometry" />
        </mxCell>
        <mxCell id="_1CBQAAkm-VoUzcbe9YA-62" value="" style="edgeStyle=orthogonalEdgeStyle;rounded=0;orthogonalLoop=1;jettySize=auto;html=1;" edge="1" parent="1" source="_1CBQAAkm-VoUzcbe9YA-59" target="_1CBQAAkm-VoUzcbe9YA-61">
          <mxGeometry relative="1" as="geometry" />
        </mxCell>
        <mxCell id="_1CBQAAkm-VoUzcbe9YA-59" value="Clicar no pedido escolhido" style="whiteSpace=wrap;html=1;fillColor=#1ba1e2;strokeColor=#006EAF;fontColor=#ffffff;" vertex="1" parent="1">
          <mxGeometry x="2500" y="525" width="120" height="60" as="geometry" />
        </mxCell>
        <mxCell id="_1CBQAAkm-VoUzcbe9YA-64" value="" style="edgeStyle=orthogonalEdgeStyle;rounded=0;orthogonalLoop=1;jettySize=auto;html=1;" edge="1" parent="1" source="_1CBQAAkm-VoUzcbe9YA-61" target="_1CBQAAkm-VoUzcbe9YA-63">
          <mxGeometry relative="1" as="geometry" />
        </mxCell>
        <mxCell id="_1CBQAAkm-VoUzcbe9YA-61" value="Ver dados do pedido" style="whiteSpace=wrap;html=1;fillColor=#1ba1e2;strokeColor=#006EAF;fontColor=#ffffff;" vertex="1" parent="1">
          <mxGeometry x="2500" y="650" width="120" height="60" as="geometry" />
        </mxCell>
        <mxCell id="_1CBQAAkm-VoUzcbe9YA-63" value="Fim" style="ellipse;whiteSpace=wrap;html=1;fillColor=#1ba1e2;fontColor=#ffffff;strokeColor=#006EAF;" vertex="1" parent="1">
          <mxGeometry x="2515" y="750" width="90" height="70" as="geometry" />
        </mxCell>
      </root>
    </mxGraphModel>
  </diagram>
</mxfile>
